HIERARCHY
ROOT Hips
{
 OFFSET 0.000000 0.000000 0.000000
 CHANNELS 6 Xposition Yposition Zposition Yrotation Xrotation Zrotation
 JOINT Chest
 {
  OFFSET 0.000000 9.585900 0.002600
  CHANNELS 3 Yrotation Xrotation Zrotation
  JOINT Chest2
  {
   OFFSET 0.000000 9.601200 -0.005300
   CHANNELS 3 Yrotation Xrotation Zrotation
   JOINT Chest3
   {
    OFFSET 0.000000 9.561800 0.000000
    CHANNELS 3 Yrotation Xrotation Zrotation
    JOINT Chest4
    {
     OFFSET 0.000000 9.552100 0.000000
     CHANNELS 3 Yrotation Xrotation Zrotation
     JOINT Neck
     {
      OFFSET 0.000000 14.453000 0.000000
      CHANNELS 3 Yrotation Xrotation Zrotation
      JOINT Head
      {
       OFFSET 0.000000 8.936500 -0.011300
       CHANNELS 3 Yrotation Xrotation Zrotation
       End Site
       {
        OFFSET 0.000000 17.073600 -0.006000
       }
      }
     }
     JOINT RightCollar
     {
      OFFSET -2.921100 9.558500 0.000000
      CHANNELS 3 Yrotation Xrotation Zrotation
      JOINT RightShoulder
      {
       OFFSET -13.519700 0.000000 0.000000
       CHANNELS 3 Yrotation Xrotation Zrotation
       JOINT RightElbow
       {
        OFFSET 0.000000 -29.696600 0.000000
        CHANNELS 3 Yrotation Xrotation Zrotation
        JOINT RightWrist
        {
         OFFSET 0.000000 -24.004700 0.000000
         CHANNELS 3 Yrotation Xrotation Zrotation
         End Site
         {
          OFFSET 0.000000 -17.728500 0.000000
         }
        }
       }
      }
     }
     JOINT LeftCollar
     {
      OFFSET 2.921100 9.558500 0.000000
      CHANNELS 3 Yrotation Xrotation Zrotation
      JOINT LeftShoulder
      {
       OFFSET 13.519700 0.000000 0.000000
       CHANNELS 3 Yrotation Xrotation Zrotation
       JOINT LeftElbow
       {
        OFFSET 0.000000 -29.696600 0.000000
        CHANNELS 3 Yrotation Xrotation Zrotation
        JOINT LeftWrist
        {
         OFFSET 0.000000 -24.004700 0.000000
         CHANNELS 3 Yrotation Xrotation Zrotation
         End Site
         {
          OFFSET 0.000000 -17.728500 0.000000
         }
        }
       }
      }
     }
    }
   }
  }
 }
 JOINT RightHip
 {
  OFFSET -7.771700 -0.012900 -0.001300
  CHANNELS 3 Yrotation Xrotation Zrotation
  JOINT RightKnee
  {
   OFFSET 0.000000 -40.869800 0.001200
   CHANNELS 3 Yrotation Xrotation Zrotation
   JOINT RightAnkle
   {
    OFFSET 0.000000 -39.717900 0.002100
    CHANNELS 3 Yrotation Xrotation Zrotation
    JOINT RightToe
    {
     OFFSET 0.000000 -4.965400 11.033500
     CHANNELS 3 Yrotation Xrotation Zrotation
     End Site
     {
      OFFSET 0.000000 -1.423100 5.872300
     }
    }
   }
  }
 }
 JOINT LeftHip
 {
  OFFSET 7.771700 -0.012900 -0.001300
  CHANNELS 3 Yrotation Xrotation Zrotation
  JOINT LeftKnee
  {
   OFFSET 0.000000 -40.869800 0.001200
   CHANNELS 3 Yrotation Xrotation Zrotation
   JOINT LeftAnkle
   {
    OFFSET 0.000000 -39.717900 0.002100
    CHANNELS 3 Yrotation Xrotation Zrotation
    JOINT LeftToe
    {
     OFFSET 0.000000 -4.965400 11.033500
     CHANNELS 3 Yrotation Xrotation Zrotation
     End Site
     {
      OFFSET 0.000000 -1.423100 5.872300
     }
    }
   }
  }
 }
}
MOTION
Frames: 5
Frame Time: 0.008333
-56.234016 50.622887 -0.242288 165.003694 -12.806478 0.001831 3.247964 9.701960 2.179163 0.201726 0.652645 0.080110 0.282537 1.084764 0.185782 2.715940 9.266617 1.624216 1.197290 18.829789 3.190063 1.184357 -0.818152 5.465603 2.477953 7.246888 0.236115 2.943045 -15.278784 -11.187234 49.072871 -53.604325 -32.322103 5.159005 5.787509 -26.590651 -9.878338 3.015304 -0.681624 1.715578 -14.482951 10.924444 -45.811587 -52.289755 24.599379 0.395957 4.577069 20.077912 2.379629 -68.023935 -3.831003 -109.724972 76.279408 -111.521764 -1.370835 -14.909671 3.876857 -1.066794 0.340786 -0.508126 -3.883449 -70.722465 22.172924 108.386500 80.687636 104.903066 -17.447005 -22.534816 -0.037439 0.906027 -0.272831 0.423133
-56.284283 50.632744 -0.223947 165.088107 -12.896092 0.146389 3.039860 9.738487 2.071803 0.173409 0.643634 0.100887 0.299582 1.109083 0.175089 2.651551 9.311453 1.669956 1.173769 18.863034 3.125167 1.162836 -0.756761 5.353742 2.594191 7.176028 0.254944 3.163698 -15.307787 -11.301807 49.056636 -53.453144 -32.401195 4.981042 5.950783 -26.710096 -9.937591 2.880556 -0.736018 0.989504 -14.634614 11.161156 -45.212993 -51.549937 24.130450 0.572498 3.855629 21.089882 2.640557 -67.974834 -4.221505 -109.785934 76.310985 -111.589993 -1.636390 -14.806022 3.799208 -0.792494 0.277441 -0.383521 -3.901721 -70.570642 21.867774 108.004568 80.620773 104.364999 -16.993734 -22.512367 -0.047716 0.538139 -0.283167 0.269895
-56.328355 50.642649 -0.207415 165.068724 -12.999986 0.247303 2.945330 9.785062 2.035398 0.169053 0.649039 0.104621 0.292123 1.118127 0.181407 2.583406 9.354522 1.714095 1.145162 18.896226 3.055308 1.133486 -0.695488 5.234506 2.707139 7.088190 0.281065 3.322580 -15.302420 -11.425575 48.946581 -53.498730 -32.378229 5.007115 6.278926 -26.562434 -9.993211 2.734026 -0.794545 0.292433 -14.716483 11.337693 -44.870927 -50.787301 24.055493 0.859233 3.298115 21.922838 3.093598 -67.902342 -4.742155 -109.935458 76.355365 -111.644020 -1.616303 -14.716336 3.758520 -0.744144 0.213372 -0.365016 -4.293212 -70.380171 22.097899 107.984934 80.537818 104.102444 -16.798663 -22.451992 -0.075747 0.390193 -0.356054 0.210993
-56.367518 50.652990 -0.192697 165.029383 -13.107692 0.316652 2.876770 9.834519 2.034396 0.164819 0.654400 0.108177 0.284771 1.127203 0.187476 2.516549 9.397080 1.755626 1.113406 18.930035 2.983133 1.099109 -0.633036 5.112045 2.800761 6.987545 0.300157 3.431483 -15.287274 -11.572006 48.811680 -53.645570 -32.269769 5.160340 6.691537 -26.237605 -10.051014 2.580627 -0.846521 -0.330939 -14.730138 11.437414 -44.535271 -50.116505 24.082881 1.079943 3.056355 22.496174 3.584882 -67.811163 -5.312737 -110.081564 76.399785 -111.649222 -1.454241 -14.635590 3.741970 -0.806053 0.153681 -0.400455 -4.750268 -70.185084 22.501863 108.126772 80.527876 103.989465 -16.767235 -22.374820 -0.076664 0.401372 -0.457512 0.199737
-56.400564 50.664062 -0.177860 164.984848 -13.201829 0.367059 2.813909 9.873377 2.047772 0.160894 0.659852 0.111470 0.277976 1.136472 0.193110 2.454298 9.439537 1.793213 1.081781 18.966032 2.910921 1.065098 -0.566396 4.989426 2.865379 6.880158 0.302213 3.487559 -15.308364 -11.735389 48.574748 -53.843394 -31.964737 5.391549 7.113259 -25.835238 -10.108614 2.426247 -0.876750 -0.845953 -14.678760 11.459771 -44.140201 -49.630672 24.120823 1.111654 3.122351 22.752657 4.008309 -67.717671 -5.810885 -110.287137 76.477323 -111.728001 -1.216224 -14.615495 3.774861 -1.003163 0.134312 -0.501768 -5.076911 -70.007733 22.844204 108.212219 80.603507 103.868560 -16.836109 -22.281791 -0.072451 0.526436 -0.541564 0.248204
